<svg width="136" height="64" viewBox="0 0 136 64" fill="none" xmlns="http://www.w3.org/2000/svg">
<path d="M78.9308 52.7273L79.7539 53.2951L78.9308 52.7273ZM134.78 11.325C135.297 11.1323 135.561 10.5566 135.368 10.039L132.229 1.60418C132.036 1.08658 131.46 0.823142 130.943 1.01578C130.425 1.20841 130.162 1.78417 130.354 2.30177L133.145 9.79936L125.647 12.5897C125.13 12.7824 124.866 13.3581 125.059 13.8757C125.251 14.3933 125.827 14.6568 126.345 14.4641L134.78 11.325ZM0.430786 49.2273L0.8616 50.1297C1.44816 49.8497 2.04667 49.5692 2.65639 49.2886L2.23827 48.3802L1.82016 47.4718C1.20225 47.7562 0.59527 48.0407 -2.73883e-05 48.3248L0.430786 49.2273ZM5.93239 46.7365L6.32789 47.655C7.53301 47.136 8.77136 46.6188 10.0382 46.1052L9.66247 45.1784L9.28674 44.2517C8.00722 44.7705 6.75567 45.2932 5.5369 45.818L5.93239 46.7365ZM13.4221 43.6968L13.7799 44.6306C15.0166 44.1567 16.2742 43.6878 17.5488 43.2254L17.2078 42.2853L16.8667 41.3453C15.5812 41.8116 14.3123 42.2847 13.0643 42.763L13.4221 43.6968ZM21.0173 40.9404L21.3422 41.8862C22.6033 41.453 23.8765 41.0275 25.1583 40.6111L24.8494 39.66L24.5404 38.7089C23.248 39.1288 21.9642 39.5578 20.6925 39.9946L21.0173 40.9404ZM28.7027 38.444L28.9956 39.4001C30.2777 39.0074 31.5646 38.625 32.8529 38.2545L32.5764 37.2934L32.3 36.3324C31.0006 36.7061 29.7027 37.0918 28.4098 37.4878L28.7027 38.444ZM36.4699 36.211L36.729 37.1769C38.0306 36.8277 39.3299 36.4921 40.6233 36.1716L40.3827 35.2009L40.1422 34.2303C38.836 34.554 37.5243 34.8928 36.2108 35.2452L36.4699 36.211ZM44.3148 34.2691L44.5351 35.2445C45.8564 34.9461 47.1674 34.6654 48.464 34.404L48.2664 33.4237L48.0688 32.4434C46.7562 32.708 45.4302 32.992 44.0945 33.2936L44.3148 34.2691ZM52.2377 32.6761L52.4094 33.6613C53.7521 33.4273 55.0737 33.217 56.3696 33.0323L56.2285 32.0423L56.0874 31.0523C54.7697 31.2401 53.4276 31.4537 52.066 31.691L52.2377 32.6761ZM60.237 31.5447L60.3409 32.5393C61.7054 32.3967 63.0318 32.2878 64.3137 32.2149L64.2569 31.2165L64.2001 30.2181C62.8838 30.293 61.5259 30.4046 60.1331 30.5501L60.237 31.5447ZM68.2834 31.1075L68.2773 32.1075C69.6778 32.1159 71.0028 32.1788 72.2426 32.2993L72.3394 31.3039L72.4361 30.3086C71.1273 30.1814 69.7411 30.1163 68.2894 30.1075L68.2834 31.1075ZM76.2955 31.9503L76.0585 32.9219C77.4325 33.2571 78.6183 33.6952 79.6054 34.235L80.0852 33.3576L80.565 32.4802C79.3906 31.838 78.0331 31.3449 76.5325 30.9788L76.2955 31.9503ZM83.0773 36L82.2416 36.5491C82.8338 37.4505 83.1774 38.5299 83.2117 39.8349L84.2114 39.8086L85.211 39.7823C85.1677 38.1377 84.727 36.6897 83.913 35.4509L83.0773 36ZM83.5917 43.8042L82.6355 43.5114C82.3054 44.589 81.828 45.7647 81.1871 47.0437L82.0811 47.4917L82.9752 47.9397C83.6568 46.5795 84.1795 45.2996 84.5478 44.0971L83.5917 43.8042ZM80.0848 50.9867L79.2407 50.4506C78.8884 51.0053 78.5109 51.5749 78.1077 52.1594L78.9308 52.7273L79.7539 53.2951C80.1707 52.691 80.5623 52.1003 80.929 51.5228L80.0848 50.9867ZM78.9308 52.7273L78.1077 52.1594C77.7006 52.7495 77.2977 53.3082 76.8993 53.8363L77.6977 54.4385L78.496 55.0407C78.9123 54.4888 79.3317 53.9072 79.7539 53.2951L78.9308 52.7273ZM75.1446 57.4904L74.4161 56.8054C73.433 57.851 72.4884 58.6986 71.587 59.3685L72.1835 60.1711L72.7799 60.9738C73.7911 60.2223 74.823 59.2923 75.8732 58.1754L75.1446 57.4904ZM68.7065 62.0447L68.3981 61.0935C67.1529 61.4972 66.0363 61.5178 65.0379 61.25L64.7787 62.2158L64.5196 63.1816C65.9277 63.5594 67.4397 63.5067 69.0149 62.996L68.7065 62.0447ZM61.4355 60.1459L62.1565 59.453C61.3884 58.6539 60.6901 57.6206 60.083 56.3759L59.1842 56.8143L58.2854 57.2526C58.9634 58.6427 59.7731 59.8594 60.7145 60.8389L61.4355 60.1459ZM57.8025 53.0948L58.7662 52.8277C58.4397 51.6503 58.1786 50.3804 57.9887 49.0358L56.9985 49.1756L56.0084 49.3154C56.2092 50.7379 56.4872 52.0934 56.8388 53.362L57.8025 53.0948ZM56.6511 45.183L57.6505 45.1466C57.6043 43.878 57.6158 42.5686 57.6883 41.2306L56.6897 41.1765L55.6912 41.1224C55.6156 42.5191 55.6034 43.8889 55.6518 45.2193L56.6511 45.183ZM57.0753 37.1902L58.0657 37.3278C58.2431 36.0514 58.475 34.7616 58.7639 33.468L57.7879 33.2501L56.8119 33.0321C56.5111 34.3794 56.2695 35.7228 56.0848 37.0526L57.0753 37.1902ZM58.8199 29.3816L59.7746 29.679C60.1603 28.4408 60.6003 27.2084 61.0966 25.9902L60.1706 25.6129L59.2445 25.2356C58.7262 26.5077 58.2672 27.7935 57.8651 29.0842L58.8199 29.3816ZM61.8431 21.9762L62.7319 22.4344C63.3263 21.2815 63.976 20.1503 64.6828 19.0486L63.8411 18.5087L62.9995 17.9687C62.2575 19.1252 61.5765 20.311 60.9542 21.5179L61.8431 21.9762ZM66.1662 15.2519L66.9497 15.8733C67.7523 14.8614 68.6111 13.8848 69.5278 12.9508L68.8141 12.2504L68.1005 11.5499C67.1329 12.5356 66.2277 13.5651 65.3827 14.6305L66.1662 15.2519ZM71.7729 9.54822L72.4055 10.3227C73.3955 9.51402 74.4407 8.75058 75.5427 8.03869L75.0001 7.19871L74.4575 6.35873C73.2921 7.11157 72.1869 7.91887 71.1403 8.77376L71.7729 9.54822ZM78.4648 5.22375L78.9114 6.11847C80.0468 5.55171 81.234 5.03509 82.4744 4.57394L82.126 3.63662L81.7775 2.69929C80.4703 3.18526 79.2176 3.73031 78.0182 4.32903L78.4648 5.22375ZM85.9487 2.4349L86.2004 3.40272C87.4352 3.08163 88.7167 2.81157 90.046 2.59683L89.8865 1.60962L89.7271 0.622422C88.3368 0.847005 86.9938 1.1299 85.6971 1.46709L85.9487 2.4349ZM93.8154 1.14673L93.8911 2.14386C95.1596 2.04752 96.4674 1.99854 97.8153 2.00003L97.8164 1.00003L97.8175 3.46899e-05C96.4197 -0.00151777 95.0606 0.0492758 93.7396 0.149598L93.8154 1.14673ZM101.842 1.14654L101.772 2.14407C103.029 2.23262 104.318 2.36277 105.64 2.53668L105.77 1.54523L105.901 0.553781C104.54 0.374763 103.211 0.240483 101.913 0.149013L101.842 1.14654ZM109.799 2.19249L109.614 3.17513C110.847 3.40797 112.106 3.67714 113.392 3.98414L113.624 3.01149L113.856 2.03883C112.54 1.72466 111.25 1.44879 109.985 1.20986L109.799 2.19249ZM117.576 4.05085L117.3 5.01215C118.51 5.35901 119.742 5.73802 120.997 6.15027L121.309 5.20027L121.621 4.25027C120.343 3.83024 119.087 3.44368 117.851 3.08956L117.576 4.05085ZM125.173 6.54983L124.826 7.48786C126.012 7.92607 127.217 8.39293 128.44 8.88925L128.816 7.96259L129.192 7.03592C127.95 6.53192 126.725 6.05747 125.519 5.61181L125.173 6.54983ZM132.532 9.53503L132.129 10.4502C132.753 10.725 133.381 11.0073 134.015 11.2971L134.431 10.3878L134.847 9.47843C134.205 9.18475 133.568 8.89859 132.935 8.61987L132.532 9.53503Z" fill="#E30613"/>
</svg>
