<svg width="106" height="51" viewBox="0 0 106 51" fill="none" xmlns="http://www.w3.org/2000/svg">
<path d="M61.3585 42.5273L62.1834 43.0925L62.1834 43.0925L61.3585 42.5273ZM104.779 10.3811C105.298 10.1898 105.563 9.61475 105.371 9.09666L102.254 0.653826C102.062 0.135731 101.487 -0.129185 100.969 0.0621177C100.451 0.253421 100.186 0.828501 100.378 1.34659L103.149 8.85134L95.6439 11.6224C95.1258 11.8137 94.8609 12.3888 95.0522 12.9069C95.2435 13.425 95.8186 13.6899 96.3367 13.4986L104.779 10.3811ZM0.433105 39.7923L0.866303 40.6936C1.45702 40.4097 2.06346 40.1252 2.68436 39.8405L2.26757 38.9315L1.85079 38.0225C1.2194 38.312 0.602007 38.6017 -9.1898e-05 38.891L0.433105 39.7923ZM6.00917 37.2877L6.39767 38.2091C7.61236 37.6969 8.8659 37.188 10.1507 36.6854L9.78645 35.7541L9.42217 34.8229C8.12181 35.3315 6.8521 35.847 5.62066 36.3662L6.00917 37.2877ZM13.6092 34.3113L13.9514 35.2509C15.2101 34.7925 16.4898 34.3426 17.7841 33.9036L17.4629 32.9566L17.1417 32.0096C15.8335 32.4533 14.5398 32.9082 13.267 33.3717L13.6092 34.3113ZM21.3409 31.6887L21.6412 32.6425C22.9307 32.2365 24.2281 31.8436 25.5275 31.4662L25.2486 30.5059L24.9697 29.5456C23.6557 29.9272 22.344 30.3244 21.0406 30.7348L21.3409 31.6887ZM29.1815 29.4134L29.4376 30.38C30.7542 30.0312 32.0665 29.701 33.3682 29.3919L33.1372 28.419L32.9062 27.446C31.5869 27.7593 30.2579 28.0937 28.9254 28.4467L29.1815 29.4134ZM37.1281 27.5317L37.3304 28.511C38.6782 28.2326 40.0066 27.9808 41.3082 27.7587L41.14 26.773L40.9718 25.7872C39.6457 26.0135 38.2945 26.2696 36.9257 26.5524L37.1281 27.5317ZM45.166 26.1708L45.2919 27.1629C46.6799 26.9868 48.0233 26.852 49.3119 26.7624L49.2425 25.7648L49.1731 24.7672C47.8425 24.8598 46.4612 24.9985 45.0402 25.1788L45.166 26.1708ZM53.3121 25.6354L53.3009 26.6353C54.7232 26.6514 56.0385 26.742 57.2305 26.9119L57.3716 25.9219L57.5128 24.9319C56.2183 24.7474 54.8143 24.6523 53.3234 24.6355L53.3121 25.6354ZM61.3238 26.944L60.9367 27.8661C62.2167 28.4033 63.1269 29.0998 63.6963 29.9385L64.5236 29.3768L65.351 28.8152C64.5063 27.5708 63.2393 26.6636 61.7108 26.022L61.3238 26.944ZM65.4334 33.258L64.4366 33.1783C64.3548 34.2006 64.0487 35.3981 63.4614 36.7903L64.3827 37.179L65.3041 37.5677C65.9511 36.0341 66.3272 34.6252 66.4302 33.3378L65.4334 33.258ZM62.4966 40.7777L61.6444 40.2545C61.3071 40.8039 60.9372 41.3729 60.5336 41.962L61.3585 42.5273L62.1834 43.0925C62.6044 42.4781 62.9926 41.881 63.3488 41.3009L62.4966 40.7777ZM61.3585 42.5273L60.5336 41.962C60.13 42.5509 59.7322 43.0991 59.3404 43.6082L60.1329 44.2181L60.9254 44.828C61.3412 44.2877 61.7606 43.7096 62.1834 43.0925L61.3585 42.5273ZM57.491 47.1849L56.8048 46.4575C55.7263 47.4747 54.7278 48.1598 53.8214 48.5777L54.2401 49.4858L54.6588 50.3939C55.8073 49.8645 56.982 49.0396 58.1771 47.9124L57.491 47.1849ZM50.3698 49.9403L50.6316 48.9751C49.6804 48.7171 48.7833 48.0715 47.9829 47.0219L47.1877 47.6282L46.3925 48.2346C47.3863 49.5378 48.628 50.5039 50.108 50.9054L50.3698 49.9403ZM45.3589 44.0914L46.3022 43.7597C45.9132 42.6531 45.6058 41.4076 45.3924 40.0538L44.4046 40.2095L43.4168 40.3652C43.6464 41.8219 43.9809 43.1871 44.4155 44.4231L45.3589 44.0914ZM44.0543 36.2126L45.054 36.1891C45.0245 34.9329 45.0666 33.6277 45.1856 32.2931L44.1895 32.2043L43.1935 32.1156C43.068 33.523 43.0233 34.9031 43.0546 36.2361L44.0543 36.2126ZM44.7533 28.2449L45.7347 28.4372C45.9813 27.1786 46.2963 25.9121 46.683 24.6528L45.7271 24.3592L44.7712 24.0656C44.3634 25.3932 44.0317 26.7274 43.772 28.0527L44.7533 28.2449ZM47.1084 20.5977L48.0267 20.9935C48.5372 19.809 49.117 18.6453 49.769 17.5154L48.9029 17.0156L48.0368 16.5158C47.3442 17.7159 46.7298 18.9493 46.19 20.2019L47.1084 20.5977ZM51.1148 13.6796L51.9113 14.2841C52.6851 13.2645 53.5296 12.2888 54.4476 11.3686L53.7396 10.6624L53.0316 9.95615C52.0476 10.9426 51.1442 11.9866 50.3182 13.075L51.1148 13.6796ZM56.755 8.03815L57.3561 8.83733C58.3651 8.07845 59.4433 7.37893 60.5936 6.74878L60.1132 5.87176L59.6327 4.99474C58.3971 5.67165 57.2383 6.42339 56.1539 7.23897L56.755 8.03815ZM63.7439 4.20321L64.0976 5.13855C65.2672 4.69624 66.4993 4.31827 67.7964 4.01258L67.567 3.03925L67.3376 2.06591C65.9573 2.39122 64.642 2.79442 63.3902 3.26786L63.7439 4.20321ZM71.5085 2.35585L71.6225 3.34933C72.8707 3.20615 74.1712 3.12444 75.5256 3.10981L75.5148 2.10987L75.504 1.10992C74.083 1.12527 72.7135 1.21106 71.3945 1.36237L71.5085 2.35585ZM79.5393 2.25188L79.4603 3.24875C80.7038 3.34738 81.9877 3.49875 83.3129 3.70638L83.4677 2.71844L83.6225 1.73049C82.249 1.51529 80.9146 1.35781 79.6184 1.25501L79.5393 2.25188ZM87.3876 3.4702L87.1675 4.44568C88.4273 4.72994 89.7209 5.06217 91.0489 5.44487L91.3258 4.48398L91.6028 3.52308C90.2386 3.12997 88.9071 2.78793 87.6077 2.49473L87.3876 3.4702ZM95.0769 5.66833L94.7528 6.61437C95.9716 7.03186 97.2172 7.48982 98.49 7.98992L98.8557 7.0592L99.2214 6.12847C97.9221 5.61792 96.6487 5.1497 95.4009 4.72229L95.0769 5.66833ZM102.539 8.59122L102.137 9.50705C102.757 9.77884 103.383 10.0602 104.015 10.3513L104.433 9.44304L104.852 8.53478C104.209 8.23861 103.571 7.9522 102.94 7.67539L102.539 8.59122Z" fill="#E30613"/>
</svg>
