<svg width="135" height="35" viewBox="0 0 135 35" fill="none" xmlns="http://www.w3.org/2000/svg">
<path d="M132.64 5.2169C133.191 5.18421 133.665 5.60465 133.697 6.15596L134.23 15.1402C134.263 15.6915 133.842 16.1649 133.291 16.1976C132.74 16.2303 132.266 15.8099 132.234 15.2586L131.76 7.27258L123.774 7.74606C123.223 7.77874 122.749 7.35831 122.717 6.80699C122.684 6.25568 123.104 5.78225 123.656 5.74956L132.64 5.2169ZM0.699219 0.714886L1.39845 -3.8147e-06C1.84543 0.43718 2.30762 0.880169 2.78465 1.32815L2.10008 2.0571L1.41551 2.78605C0.928828 2.329 0.456845 1.87664 -1.74642e-05 1.42978L0.699219 0.714886ZM5.02336 4.70041L5.68054 3.94668C6.63245 4.77666 7.62907 5.61738 8.6681 6.46419L8.03634 7.23935L7.40458 8.01451C6.34857 7.15386 5.33499 6.29886 4.36618 5.45414L5.02336 4.70041ZM11.1195 9.67285L11.7269 8.87846C12.7386 9.65204 13.7832 10.4269 14.8588 11.1996L14.2754 12.0118L13.692 12.824C12.6001 12.0396 11.5395 11.2528 10.5121 10.4672L11.1195 9.67285ZM17.5008 14.2577L18.0602 13.4288C19.1236 14.1464 20.2129 14.8591 21.3264 15.5641L20.7915 16.409L20.2566 17.2539C19.1263 16.5384 18.0208 15.815 16.9415 15.0866L17.5008 14.2577ZM24.1418 18.4618L24.6517 17.6015C25.7584 18.2574 26.886 18.9036 28.0332 19.5379L27.5493 20.413L27.0655 21.2882C25.9005 20.6441 24.7556 19.9879 23.632 19.3221L24.1418 18.4618ZM31.0152 22.2606L31.472 21.371C32.62 21.9605 33.7851 22.5363 34.9664 23.0962L34.538 23.9998L34.1097 24.9035C32.9089 24.3342 31.7248 23.7491 30.5585 23.1502L31.0152 22.2606ZM38.116 25.625L38.5145 24.7078C39.7004 25.223 40.9006 25.7209 42.114 26.1995L41.7471 27.1297L41.3802 28.06C40.1451 27.5729 38.9239 27.0663 37.7175 26.5422L38.116 25.625ZM45.429 28.5069L45.7624 27.5641C46.9825 27.9956 48.2143 28.4063 49.4568 28.7941L49.1589 29.7487L48.8609 30.7033C47.594 30.3078 46.3385 29.8892 45.0955 29.4496L45.429 28.5069ZM52.9336 30.8469L53.1939 29.8814C54.4424 30.2181 55.7003 30.5305 56.9666 30.8167L56.7461 31.7921L56.5257 32.7675C55.2319 32.4751 53.9474 32.156 52.6732 31.8124L52.9336 30.8469ZM60.5957 32.5762L60.7739 31.5923C62.0456 31.8226 63.3247 32.0255 64.6101 32.1988L64.4764 33.1898L64.3428 34.1809C63.0267 34.0034 61.718 33.7958 60.4174 33.5602L60.5957 32.5762ZM68.3817 33.6236L68.4684 32.6273C69.7544 32.7393 71.0457 32.8204 72.3415 32.8691L72.304 33.8684L72.2665 34.8677C70.9371 34.8178 69.613 34.7345 68.295 34.6198L68.3817 33.6236ZM76.2351 33.9157L76.2214 32.9158C77.5088 32.8981 78.7996 32.847 80.0931 32.7606L80.1598 33.7583L80.2264 34.7561C78.897 34.8449 77.5709 34.8975 76.2488 34.9156L76.2351 33.9157ZM84.0686 33.3907L83.9477 32.398C85.2224 32.2429 86.4988 32.0521 87.7762 31.824L87.952 32.8084L88.1277 33.7929C86.8134 34.0275 85.5003 34.2238 84.1894 34.3833L84.0686 33.3907ZM91.7991 32.0091L91.5681 31.0362C92.8169 30.7397 94.0658 30.4061 95.3142 30.0337L95.6 30.992L95.8859 31.9503C94.6009 32.3335 93.3154 32.677 92.0301 32.9821L91.7991 32.0091ZM99.3297 29.7635L98.9902 28.8229C100.19 28.3896 101.39 27.919 102.587 27.4096L102.979 28.3297L103.37 29.2499C102.138 29.774 100.904 30.2582 99.6693 30.7041L99.3297 29.7635ZM106.548 26.6934L106.107 25.796C107.256 25.2308 108.403 24.6283 109.547 23.9872L110.036 24.8595L110.525 25.7319C109.35 26.3904 108.171 27.0096 106.99 27.5907L106.548 26.6934ZM113.407 22.8535L112.874 22.0075C113.95 21.3292 115.023 20.6152 116.093 19.8645L116.668 20.683L117.242 21.5016C116.146 22.2711 115.045 23.0034 113.94 23.6994L113.407 22.8535ZM119.837 18.3435L119.224 17.5533C120.233 16.7709 121.238 15.9543 122.24 15.1027L122.888 15.8644L123.535 16.6262C122.511 17.4971 121.482 18.3327 120.449 19.1338L119.837 18.3435ZM125.812 13.2672L125.132 12.5338C126.074 11.6609 127.012 10.7556 127.945 9.81705L128.654 10.5223L129.363 11.2275C128.411 12.1849 127.453 13.1091 126.491 14.0007L125.812 13.2672ZM131.358 7.69774L130.623 7.01996C131.067 6.53822 131.51 6.04864 131.952 5.55113L132.699 6.21515L133.447 6.87916C132.997 7.38585 132.546 7.88461 132.093 8.37552L131.358 7.69774Z" fill="#E30613"/>
</svg>
