<svg width="60" height="60" viewBox="0 0 60 60" fill="none" xmlns="http://www.w3.org/2000/svg">
<path d="M45 24.6748C45 16.4042 38.2706 9.6748 30 9.6748C21.7294 9.6748 15 16.4042 15 24.6748C15 32.9454 21.7294 39.6748 30 39.6748C38.2706 39.6748 45 32.9454 45 24.6748ZM30 37.7998C22.7625 37.7998 16.875 31.9123 16.875 24.6748C16.875 17.4373 22.7625 11.5498 30 11.5498C37.2375 11.5498 43.125 17.4373 43.125 24.6748C43.125 31.9123 37.2375 37.7998 30 37.7998Z" fill="#E30613"/>
<path d="M57.9057 46.335L48.2035 34.7728C48.3404 33.9272 48.5007 33.135 48.7829 32.4544C49.1241 31.6303 49.7457 30.7969 50.4047 29.9166C51.5269 28.4128 52.8 26.7103 52.8 24.675C52.8 22.6397 51.5279 20.9363 50.4038 19.4325C49.7457 18.5513 49.1241 17.7188 48.7829 16.8947C48.4172 16.0153 48.256 14.9503 48.0863 13.8225C47.7966 11.9081 47.4975 9.92813 46.1222 8.55281C44.7469 7.1775 42.766 6.87844 40.8507 6.58781C39.7238 6.41719 38.6588 6.25594 37.7804 5.89219C36.9563 5.55094 36.1238 4.92844 35.2425 4.27031C33.7388 3.14812 32.0363 1.875 30 1.875C27.9638 1.875 26.2604 3.14719 24.7575 4.27125C23.8763 4.92938 23.0447 5.55094 22.2207 5.89219C21.3413 6.25688 20.2763 6.41813 19.1494 6.58781C17.2341 6.87844 15.2532 7.1775 13.8779 8.55281C12.5025 9.92813 12.2035 11.9081 11.9138 13.8225C11.7432 14.9503 11.5819 16.0153 11.2172 16.8947C10.876 17.7188 10.2544 18.5512 9.5963 19.4316C8.47317 20.9353 7.20098 22.6388 7.20098 24.675C7.20098 26.7113 8.47317 28.4137 9.5963 29.9175C10.2544 30.7978 10.876 31.6303 11.2172 32.4544C11.4994 33.135 11.6597 33.9272 11.7966 34.7719L2.09442 46.335C1.98398 46.4665 1.91183 46.6259 1.88588 46.7957C1.85992 46.9655 1.88116 47.1391 1.94726 47.2977C2.01336 47.4562 2.12178 47.5935 2.26067 47.6945C2.39956 47.7956 2.56356 47.8565 2.73473 47.8706L11.7994 48.6319L14.1225 57.4275C14.1665 57.5936 14.2552 57.7444 14.379 57.8635C14.5028 57.9826 14.6569 58.0654 14.8246 58.1029C14.9922 58.1403 15.167 58.1309 15.3297 58.0758C15.4924 58.0207 15.6368 57.9219 15.7472 57.7903L25.785 45.8278C27.031 46.7006 28.4138 47.475 30.001 47.475C31.5882 47.475 32.971 46.7006 34.2169 45.8269L44.2547 57.7894C44.365 57.9211 44.5094 58.0199 44.672 58.075C44.8347 58.1302 45.0094 58.1396 45.177 58.1021C45.3446 58.0647 45.4987 57.9818 45.6225 57.8627C45.7462 57.7435 45.8347 57.5927 45.8785 57.4266L48.2025 48.6309L57.2672 47.8697C57.4382 47.8551 57.6018 47.7939 57.7404 47.6927C57.8789 47.5916 57.9871 47.4543 58.053 47.2959C58.1189 47.1376 58.1402 46.9641 58.1143 46.7945C58.0885 46.6249 58.0167 46.4656 57.9066 46.3341L57.9057 46.335ZM15.4735 55.1991L13.4429 47.5134C13.3934 47.3265 13.2873 47.1594 13.139 47.0352C12.9908 46.911 12.8078 46.8357 12.615 46.8197L4.69411 46.155L12.2016 37.2075C12.4754 38.5481 12.9066 39.825 13.8788 40.7972C15.2541 42.1725 17.2341 42.4716 19.1485 42.7622C20.2763 42.9328 21.3413 43.0941 22.2207 43.4587C22.89 43.7362 23.5669 44.2013 24.2691 44.7178L15.4735 55.1991ZM25.8807 43.5778C24.946 42.8803 23.9804 42.1575 22.9397 41.7262C21.8485 41.2744 20.6185 41.0878 19.4297 40.9078C17.7404 40.6528 16.1447 40.4109 15.2054 39.4716C14.266 38.5322 14.025 36.9366 13.7691 35.2463C13.5891 34.0566 13.4035 32.8284 12.9507 31.7372C12.5194 30.6966 11.7975 29.73 11.0991 28.7953C10.0594 27.4031 9.07692 26.0878 9.07692 24.675C9.07692 23.2622 10.0594 21.9469 11.1 20.5537C11.7985 19.6191 12.5194 18.6534 12.9516 17.6119C13.4035 16.5216 13.59 15.2906 13.77 14.1028C14.025 12.4125 14.2669 10.8169 15.2063 9.8775C16.1457 8.93813 17.7422 8.69625 19.4325 8.44125C20.6213 8.26219 21.8504 8.07562 22.9416 7.62375C23.9822 7.19156 24.9479 6.47062 25.8825 5.77219C27.2747 4.73156 28.591 3.74906 30.0038 3.74906C31.4166 3.74906 32.7319 4.73156 34.1241 5.77125C35.0588 6.46969 36.0254 7.19156 37.0669 7.62375C38.1572 8.07562 39.3872 8.26219 40.575 8.44125C42.2654 8.69625 43.8619 8.93813 44.8013 9.8775C45.7407 10.8169 45.9816 12.4125 46.2366 14.1019C46.4166 15.2916 46.6032 16.5206 47.055 17.6119C47.4863 18.6525 48.2082 19.62 48.9075 20.5537C49.9472 21.9459 50.9297 23.2622 50.9297 24.675C50.9297 26.0878 49.9472 27.4022 48.9075 28.7944C48.2091 29.7291 47.4863 30.6956 47.055 31.7372C46.6032 32.8284 46.4166 34.0584 46.2366 35.2463C45.9816 36.9366 45.7397 38.5322 44.8004 39.4716C43.861 40.4109 42.2654 40.6528 40.576 40.9078C39.3863 41.0878 38.1572 41.2744 37.0669 41.7262C36.0263 42.1575 35.0588 42.8794 34.1241 43.5788C32.7319 44.6175 31.4166 45.6 30.0038 45.6C28.591 45.6 27.2757 44.6175 25.8835 43.5778H25.8807ZM47.386 46.8197C47.1933 46.836 47.0104 46.9114 46.8623 47.0355C46.7141 47.1597 46.6079 47.3266 46.5582 47.5134L44.5285 55.1991L35.7319 44.7169C36.4341 44.2003 37.111 43.7353 37.7813 43.4578C38.6607 43.0922 39.7257 42.9309 40.8525 42.7612C42.7679 42.4706 44.7469 42.1716 46.1222 40.7962C47.0944 39.8241 47.5257 38.5462 47.7994 37.2056L55.3079 46.1531L47.386 46.8178V46.8197Z" fill="#E30613"/>
<path d="M39.3291 22.4918C39.2748 22.3253 39.1752 22.1774 39.0413 22.0646C38.9075 21.9518 38.7448 21.8786 38.5716 21.8533L33.2297 21.0761L30.84 16.2358C30.5241 15.5946 29.475 15.5946 29.1591 16.2358L26.7694 21.0761L21.4266 21.8533C21.2536 21.8786 21.0912 21.9517 20.9576 22.0645C20.824 22.1772 20.7245 22.325 20.6705 22.4913C20.6165 22.6575 20.61 22.8355 20.6519 23.0053C20.6937 23.175 20.7821 23.3296 20.9072 23.4518L24.7725 27.2205L23.8594 32.5418C23.8298 32.7142 23.8491 32.8914 23.9151 33.0534C23.981 33.2154 24.0909 33.3558 24.2324 33.4586C24.374 33.5614 24.5414 33.6225 24.7159 33.6351C24.8904 33.6477 25.0649 33.6113 25.2197 33.5299L29.9981 31.0174L34.7766 33.5299C34.9314 33.6113 35.1059 33.6477 35.2804 33.6351C35.4548 33.6225 35.6223 33.5614 35.7638 33.4586C35.9053 33.3558 36.0153 33.2154 36.0812 33.0534C36.1471 32.8914 36.1664 32.7142 36.1369 32.5418L35.2238 27.2205L39.09 23.4518C39.345 23.2024 39.4369 22.8302 39.3272 22.4918H39.3291ZM33.5644 26.2221C33.4557 26.3282 33.3744 26.4592 33.3275 26.6037C33.2806 26.7483 33.2696 26.902 33.2953 27.0518L33.9703 30.9864L30.4369 29.1293C30.3025 29.0584 30.1529 29.0214 30.0009 29.0214C29.849 29.0214 29.6994 29.0584 29.565 29.1293L26.0316 30.9864L26.7066 27.0518C26.7321 26.9019 26.7209 26.7481 26.6739 26.6036C26.6268 26.4591 26.5454 26.3282 26.4366 26.2221L23.5781 23.4358L27.5288 22.8611C27.6791 22.8395 27.8219 22.7814 27.9448 22.6921C28.0676 22.6027 28.1668 22.4847 28.2338 22.3483L30.0009 18.7699L31.7681 22.3483C31.8354 22.4846 31.9348 22.6025 32.0578 22.6919C32.1808 22.7812 32.3236 22.8393 32.4741 22.8611L36.4238 23.4358L33.5653 26.2221H33.5644Z" fill="#E30613"/>
</svg>
