<svg width="60" height="60" viewBox="0 0 60 60" fill="none" xmlns="http://www.w3.org/2000/svg">
<path d="M56.25 1.875H3.75C3.50136 1.875 3.2629 1.97377 3.08709 2.14959C2.91127 2.3254 2.8125 2.56386 2.8125 2.8125V53.4375C2.8139 54.6803 3.3082 55.8717 4.18698 56.7505C5.06575 57.6293 6.25723 58.1236 7.5 58.125H56.25C56.4986 58.125 56.7371 58.0262 56.9129 57.8504C57.0887 57.6746 57.1875 57.4361 57.1875 57.1875V2.8125C57.1875 2.56386 57.0887 2.3254 56.9129 2.14959C56.7371 1.97377 56.4986 1.875 56.25 1.875ZM4.6875 53.4375V50.625H8.4375V54.375C8.43702 55.0336 8.6111 55.6806 8.94199 56.25H7.5C6.75435 56.2491 6.03948 55.9525 5.51222 55.4253C4.98496 54.898 4.68837 54.1832 4.6875 53.4375ZM47.8125 56.25H12.1875C11.6904 56.2494 11.2138 56.0517 10.8623 55.7002C10.5108 55.3487 10.3131 54.8721 10.3125 54.375V49.6875C10.3125 49.4389 10.2137 49.2004 10.0379 49.0246C9.8621 48.8488 9.62364 48.75 9.375 48.75H4.6875V3.75H47.8125V56.25ZM51.5625 56.25H49.6875V3.75H51.5625V56.25ZM55.3125 56.25H53.4375V3.75H55.3125V56.25Z" fill="#E30613"/>
<path d="M15 9.375H37.5C37.7486 9.375 37.9871 9.27623 38.1629 9.10041C38.3387 8.9246 38.4375 8.68614 38.4375 8.4375C38.4375 8.18886 38.3387 7.9504 38.1629 7.77459C37.9871 7.59877 37.7486 7.5 37.5 7.5H15C14.7514 7.5 14.5129 7.59877 14.3371 7.77459C14.1613 7.9504 14.0625 8.18886 14.0625 8.4375C14.0625 8.68614 14.1613 8.9246 14.3371 9.10041C14.5129 9.27623 14.7514 9.375 15 9.375ZM9.375 15H28.125C28.3736 15 28.6121 14.9012 28.7879 14.7254C28.9637 14.5496 29.0625 14.3111 29.0625 14.0625C29.0625 13.8139 28.9637 13.5754 28.7879 13.3996C28.6121 13.2238 28.3736 13.125 28.125 13.125H9.375C9.12636 13.125 8.8879 13.2238 8.71209 13.3996C8.53627 13.5754 8.4375 13.8139 8.4375 14.0625C8.4375 14.3111 8.53627 14.5496 8.71209 14.7254C8.8879 14.9012 9.12636 15 9.375 15ZM9.375 18.75H28.125C28.3736 18.75 28.6121 18.6512 28.7879 18.4754C28.9637 18.2996 29.0625 18.0611 29.0625 17.8125C29.0625 17.5639 28.9637 17.3254 28.7879 17.1496C28.6121 16.9738 28.3736 16.875 28.125 16.875H9.375C9.12636 16.875 8.8879 16.9738 8.71209 17.1496C8.53627 17.3254 8.4375 17.5639 8.4375 17.8125C8.4375 18.0611 8.53627 18.2996 8.71209 18.4754C8.8879 18.6512 9.12636 18.75 9.375 18.75ZM9.375 22.5H28.125C28.3736 22.5 28.6121 22.4012 28.7879 22.2254C28.9637 22.0496 29.0625 21.8111 29.0625 21.5625C29.0625 21.3139 28.9637 21.0754 28.7879 20.8996C28.6121 20.7238 28.3736 20.625 28.125 20.625H9.375C9.12636 20.625 8.8879 20.7238 8.71209 20.8996C8.53627 21.0754 8.4375 21.3139 8.4375 21.5625C8.4375 21.8111 8.53627 22.0496 8.71209 22.2254C8.8879 22.4012 9.12636 22.5 9.375 22.5ZM9.375 45H43.125C43.3736 45 43.6121 44.9012 43.7879 44.7254C43.9637 44.5496 44.0625 44.3111 44.0625 44.0625C44.0625 43.8139 43.9637 43.5754 43.7879 43.3996C43.6121 43.2238 43.3736 43.125 43.125 43.125H9.375C9.12636 43.125 8.8879 43.2238 8.71209 43.3996C8.53627 43.5754 8.4375 43.8139 8.4375 44.0625C8.4375 44.3111 8.53627 44.5496 8.71209 44.7254C8.8879 44.9012 9.12636 45 9.375 45ZM43.125 46.875H15C14.7514 46.875 14.5129 46.9738 14.3371 47.1496C14.1613 47.3254 14.0625 47.5639 14.0625 47.8125C14.0625 48.0611 14.1613 48.2996 14.3371 48.4754C14.5129 48.6512 14.7514 48.75 15 48.75H43.125C43.3736 48.75 43.6121 48.6512 43.7879 48.4754C43.9637 48.2996 44.0625 48.0611 44.0625 47.8125C44.0625 47.5639 43.9637 47.3254 43.7879 47.1496C43.6121 46.9738 43.3736 46.875 43.125 46.875ZM39.375 50.625H30C29.7514 50.625 29.5129 50.7238 29.3371 50.8996C29.1613 51.0754 29.0625 51.3139 29.0625 51.5625C29.0625 51.8111 29.1613 52.0496 29.3371 52.2254C29.5129 52.4012 29.7514 52.5 30 52.5H39.375C39.6236 52.5 39.8621 52.4012 40.0379 52.2254C40.2137 52.0496 40.3125 51.8111 40.3125 51.5625C40.3125 51.3139 40.2137 51.0754 40.0379 50.8996C39.8621 50.7238 39.6236 50.625 39.375 50.625ZM9.375 41.25H20.625C20.8736 41.25 21.1121 41.1512 21.2879 40.9754C21.4637 40.7996 21.5625 40.5611 21.5625 40.3125V25.3125C21.5625 25.0639 21.4637 24.8254 21.2879 24.6496C21.1121 24.4738 20.8736 24.375 20.625 24.375H9.375C9.12636 24.375 8.8879 24.4738 8.71209 24.6496C8.53627 24.8254 8.4375 25.0639 8.4375 25.3125V40.3125C8.4375 40.5611 8.53627 40.7996 8.71209 40.9754C8.8879 41.1512 9.12636 41.25 9.375 41.25ZM10.3125 26.25H19.6875V39.375H10.3125V26.25ZM30.9375 14.0625V29.0625C30.9375 29.3111 31.0363 29.5496 31.2121 29.7254C31.3879 29.9012 31.6264 30 31.875 30H43.125C43.3736 30 43.6121 29.9012 43.7879 29.7254C43.9637 29.5496 44.0625 29.3111 44.0625 29.0625V14.0625C44.0625 13.8139 43.9637 13.5754 43.7879 13.3996C43.6121 13.2238 43.3736 13.125 43.125 13.125H31.875C31.6264 13.125 31.3879 13.2238 31.2121 13.3996C31.0363 13.5754 30.9375 13.8139 30.9375 14.0625ZM32.8125 15H42.1875V28.125H32.8125V15ZM24.375 30H28.125C28.3736 30 28.6121 29.9012 28.7879 29.7254C28.9637 29.5496 29.0625 29.3111 29.0625 29.0625C29.0625 28.8139 28.9637 28.5754 28.7879 28.3996C28.6121 28.2238 28.3736 28.125 28.125 28.125H24.375C24.1264 28.125 23.8879 28.2238 23.7121 28.3996C23.5363 28.5754 23.4375 28.8139 23.4375 29.0625C23.4375 29.3111 23.5363 29.5496 23.7121 29.7254C23.8879 29.9012 24.1264 30 24.375 30ZM24.375 26.25H28.125C28.3736 26.25 28.6121 26.1512 28.7879 25.9754C28.9637 25.7996 29.0625 25.5611 29.0625 25.3125C29.0625 25.0639 28.9637 24.8254 28.7879 24.6496C28.6121 24.4738 28.3736 24.375 28.125 24.375H24.375C24.1264 24.375 23.8879 24.4738 23.7121 24.6496C23.5363 24.8254 23.4375 25.0639 23.4375 25.3125C23.4375 25.5611 23.5363 25.7996 23.7121 25.9754C23.8879 26.1512 24.1264 26.25 24.375 26.25ZM43.125 31.875H24.375C24.1264 31.875 23.8879 31.9738 23.7121 32.1496C23.5363 32.3254 23.4375 32.5639 23.4375 32.8125C23.4375 33.0611 23.5363 33.2996 23.7121 33.4754C23.8879 33.6512 24.1264 33.75 24.375 33.75H43.125C43.3736 33.75 43.6121 33.6512 43.7879 33.4754C43.9637 33.2996 44.0625 33.0611 44.0625 32.8125C44.0625 32.5639 43.9637 32.3254 43.7879 32.1496C43.6121 31.9738 43.3736 31.875 43.125 31.875ZM43.125 35.625H24.375C24.1264 35.625 23.8879 35.7238 23.7121 35.8996C23.5363 36.0754 23.4375 36.3139 23.4375 36.5625C23.4375 36.8111 23.5363 37.0496 23.7121 37.2254C23.8879 37.4012 24.1264 37.5 24.375 37.5H43.125C43.3736 37.5 43.6121 37.4012 43.7879 37.2254C43.9637 37.0496 44.0625 36.8111 44.0625 36.5625C44.0625 36.3139 43.9637 36.0754 43.7879 35.8996C43.6121 35.7238 43.3736 35.625 43.125 35.625ZM43.125 39.375H24.375C24.1264 39.375 23.8879 39.4738 23.7121 39.6496C23.5363 39.8254 23.4375 40.0639 23.4375 40.3125C23.4375 40.5611 23.5363 40.7996 23.7121 40.9754C23.8879 41.1512 24.1264 41.25 24.375 41.25H43.125C43.3736 41.25 43.6121 41.1512 43.7879 40.9754C43.9637 40.7996 44.0625 40.5611 44.0625 40.3125C44.0625 40.0639 43.9637 39.8254 43.7879 39.6496C43.6121 39.4738 43.3736 39.375 43.125 39.375Z" fill="#E30613"/>
<path d="M43.125 52.5C43.6428 52.5 44.0625 52.0803 44.0625 51.5625C44.0625 51.0447 43.6428 50.625 43.125 50.625C42.6072 50.625 42.1875 51.0447 42.1875 51.5625C42.1875 52.0803 42.6072 52.5 43.125 52.5Z" fill="#E30613"/>
</svg>
