<svg width="74" height="121" viewBox="0 0 74 121" fill="none" xmlns="http://www.w3.org/2000/svg">
<path d="M3.68826 47.6712L2.76862 48.064L3.68826 47.6712ZM8.87456 116.999C8.76107 117.54 9.10722 118.07 9.64772 118.183L18.4556 120.033C18.9961 120.146 19.5263 119.8 19.6398 119.26C19.7533 118.719 19.4071 118.189 18.8666 118.075L11.0374 116.431L12.6814 108.602C12.7948 108.062 12.4487 107.531 11.9082 107.418C11.3677 107.304 10.8375 107.651 10.724 108.191L8.87456 116.999ZM72.8521 0.117754L71.8591 0.000162298C71.7845 0.629515 71.6968 1.26398 71.5963 1.90298L72.5842 2.05837L73.572 2.21375C73.6764 1.55042 73.7676 0.890748 73.8452 0.235346L72.8521 0.117754ZM71.8343 5.93454L70.8594 5.71197C70.5754 6.95595 70.2478 8.2117 69.879 9.47524L70.839 9.7554L71.7989 10.0355C72.1782 8.73585 72.516 7.44168 72.8093 6.15711L71.8343 5.93454ZM69.6315 13.5142L68.6876 13.1838C68.2626 14.3979 67.8026 15.6151 67.3101 16.832L68.2371 17.2072L69.164 17.5824C69.6681 16.3369 70.1393 15.0899 70.5753 13.8446L69.6315 13.5142ZM66.675 20.8321L65.7655 20.4164C65.2274 21.5937 64.6609 22.7672 64.068 23.9338L64.9595 24.3868L65.851 24.8399C66.4561 23.6492 67.0347 22.4507 67.5845 21.2478L66.675 20.8321ZM63.1012 27.8692L62.2284 27.381C61.5933 28.5166 60.9347 29.6422 60.2546 30.7546L61.1078 31.2762L61.961 31.7978C62.6544 30.6635 63.3261 29.5156 63.974 28.3573L63.1012 27.8692ZM58.9843 34.604L58.1518 34.0499C57.4278 35.1379 56.6843 36.2093 55.9235 37.2613L56.7337 37.8473L57.544 38.4333C58.3202 37.3602 59.0784 36.2674 59.8168 35.158L58.9843 34.604ZM54.357 40.9994L53.5709 40.3813C52.76 41.4126 51.9335 42.4201 51.0936 43.4005L51.853 44.0511L52.6124 44.7017C53.471 43.6996 54.3153 42.6703 55.1431 41.6174L54.357 40.9994ZM49.2188 46.9906L48.4895 46.3063C47.5889 47.2662 46.6765 48.1928 45.755 49.0824L46.4495 49.8019L47.144 50.5213C48.0902 49.6079 49.0257 48.6578 49.948 47.6748L49.2188 46.9906ZM43.5385 52.4633L42.8849 51.7064C41.887 52.5682 40.8821 53.3836 39.8735 54.1482L40.4776 54.9451L41.0817 55.742C42.1261 54.9503 43.1639 54.1081 44.1921 53.2201L43.5385 52.4633ZM37.2429 57.2156L36.7007 56.3754C35.5875 57.0938 34.4747 57.7449 33.3665 58.3235L33.8293 59.21L34.2921 60.0965C35.4589 59.4873 36.6246 58.8048 37.7852 58.0558L37.2429 57.2156ZM30.2375 60.8399L29.8794 59.9062C28.6581 60.3747 27.45 60.7451 26.2606 61.0112L26.4789 61.9871L26.6971 62.9629C27.9906 62.6736 29.2921 62.2736 30.5957 61.7735L30.2375 60.8399ZM22.5612 62.4984L22.529 61.4989C21.267 61.5397 20.034 61.4456 18.8355 61.2086L18.6415 62.1896L18.4475 63.1706C19.8043 63.4389 21.1896 63.5432 22.5935 63.4979L22.5612 62.4984ZM14.9104 60.9594L15.3381 60.0555C14.2572 59.5439 13.2052 58.8892 12.1887 58.0789L11.5654 58.8608L10.9421 59.6428C12.0748 60.5458 13.2574 61.2835 14.4826 61.8633L14.9104 60.9594ZM8.75419 56.1296L9.513 55.4783C8.73881 54.5763 7.99146 53.5617 7.27545 52.4274L6.42983 52.9612L5.58421 53.495C6.34809 54.7051 7.15276 55.7992 7.99538 56.7809L8.75419 56.1296ZM4.52603 49.5136L5.42608 49.0778C5.1467 48.5008 4.87387 47.9012 4.60789 47.2784L3.68826 47.6712L2.76862 48.064C3.04649 48.7146 3.33236 49.343 3.62599 49.9494L4.52603 49.5136ZM3.68826 47.6712L4.60789 47.2784C4.32633 46.6192 4.06908 45.9803 3.83525 45.3614L2.89981 45.7149L1.96436 46.0684C2.20871 46.715 2.47657 47.3802 2.76862 48.064L3.68826 47.6712ZM1.68252 41.9266L2.65071 41.6764C2.29155 40.2869 2.07925 39.0357 1.99416 37.9158L0.997039 37.9916L-9.14471e-05 38.0674C0.0953591 39.3236 0.330689 40.6926 0.714338 42.1769L1.68252 41.9266ZM1.26937 34.0514L2.23835 34.2985C2.56184 33.0301 3.14064 32.075 3.90021 31.3738L3.22193 30.639L2.54365 29.9042C1.47242 30.8931 0.709611 32.1997 0.300381 33.8042L1.26937 34.0514ZM6.75716 28.9174L6.95812 29.897C8.04385 29.6743 9.2904 29.6356 10.6669 29.7869L10.7762 28.7929L10.8855 27.7989C9.34815 27.6299 7.88707 27.6648 6.5562 27.9378L6.75716 28.9174ZM14.6588 29.6106L14.3702 30.568C15.54 30.9207 16.7532 31.3779 17.9914 31.9354L18.4019 31.0235L18.8124 30.1116C17.5024 29.5219 16.2078 29.0331 14.9475 28.6531L14.6588 29.6106ZM21.9632 32.8616L21.4603 33.726C22.5576 34.3643 23.6586 35.0732 24.7513 35.8489L25.3302 35.0335L25.909 34.2181C24.7685 33.4083 23.6168 32.6666 22.466 31.9972L21.9632 32.8616ZM28.4948 37.4879L27.8496 38.2519C28.8341 39.0833 29.8008 39.9681 30.7404 40.9031L31.4457 40.1943L32.1511 39.4854C31.1726 38.5117 30.1657 37.5901 29.14 36.7239L28.4948 37.4879ZM34.1656 43.1323L33.4043 43.7808C34.2453 44.768 35.0524 45.7981 35.8174 46.8682L36.6309 46.2867L37.4444 45.7051C36.6455 44.5876 35.8034 43.513 34.9268 42.4839L34.1656 43.1323ZM38.8128 49.6426L37.9508 50.1494C38.6082 51.2676 39.2177 52.4209 39.7718 53.6068L40.6778 53.1835L41.5838 52.7601C41.0021 51.5153 40.3631 50.3063 39.6748 49.1358L38.8128 49.6426ZM42.19 56.8883L41.2462 57.2189C41.6733 58.4379 42.0404 59.6854 42.3407 60.9592L43.314 60.7298L44.2873 60.5004C43.9705 59.156 43.5834 57.8409 43.1337 56.5576L42.19 56.8883ZM44.0189 64.6743L43.0263 64.7957C43.1814 66.0645 43.2689 67.3559 43.2824 68.6678L44.2823 68.6575L45.2823 68.6472C45.268 67.2598 45.1755 65.8943 45.0115 64.553L44.0189 64.6743ZM44.1022 72.6415L43.1072 72.5414C42.9802 73.804 42.7831 75.0836 42.5107 76.3787L43.4893 76.5845L44.4679 76.7904C44.755 75.4256 44.963 74.0754 45.0972 72.7416L44.1022 72.6415ZM42.4642 80.4584L41.5116 80.1544C41.1237 81.3699 40.6678 82.5976 40.1396 83.8363L41.0595 84.2285L41.9793 84.6208C42.5317 83.3254 43.0096 82.0388 43.4169 80.7623L42.4642 80.4584ZM39.3531 87.7976L38.4696 87.3292C37.8737 88.4532 37.2168 89.5851 36.4959 90.724L37.3408 91.2589L38.1857 91.7937C38.9334 90.6127 39.6161 89.4364 40.2366 88.266L39.3531 87.7976ZM35.0672 94.5847L34.2613 93.9927C33.5152 95.0084 32.7169 96.0288 31.8643 97.0532L32.6329 97.6929L33.4015 98.3326C34.2792 97.2781 35.1024 96.2259 35.8731 95.1768L35.0672 94.5847ZM29.9343 100.754L29.2025 100.072C28.3473 100.991 27.4474 101.912 26.5014 102.835L27.1998 103.55L27.8982 104.266C28.8663 103.321 29.7885 102.378 30.6661 101.436L29.9343 100.754ZM24.2109 106.337L23.5453 105.59C22.6058 106.428 21.6275 107.268 20.6092 108.108L21.2457 108.88L21.8822 109.651C22.9197 108.795 23.9175 107.938 24.8766 107.083L24.2109 106.337ZM18.0417 111.426L17.4336 110.632C16.4298 111.401 15.3918 112.17 14.3188 112.94L14.9016 113.752L15.4844 114.565C16.574 113.783 17.6288 113.002 18.6497 112.22L18.0417 111.426ZM11.5882 116.054L11.0296 115.225C10.464 115.606 9.8897 115.986 9.30651 116.367L9.85322 117.205L10.3999 118.042C10.991 117.656 11.5732 117.27 12.1467 116.884L11.5882 116.054Z" fill="#E30613"/>
</svg>
