<svg width="60" height="60" viewBox="0 0 60 60" fill="none" xmlns="http://www.w3.org/2000/svg">
<path d="M46.0631 49.0645C46.1747 48.975 46.2647 48.8615 46.3266 48.7325C46.3884 48.6035 46.4204 48.4622 46.4203 48.3191V4.78723C46.4203 4.25834 45.9918 3.82979 45.4629 3.82979H17.7627C17.0796 1.61451 15.0134 0 12.577 0C10.1798 0 8.08224 1.59753 7.39224 3.82979H4.32433C4.19859 3.82977 4.07408 3.85452 3.95791 3.90263C3.84174 3.95074 3.73619 4.02127 3.64727 4.11018C3.55836 4.19909 3.48784 4.30464 3.43973 4.42081C3.39162 4.53698 3.36687 4.6615 3.36688 4.78723V59.0425C3.36688 59.5714 3.79544 60 4.32433 60H34.7312C35.0408 60 35.3091 59.8606 35.4846 59.6433L46.0631 49.0645ZM35.6969 56.7227V49.2766H43.1429L35.6969 56.7227ZM12.577 1.91489C13.9382 1.91489 15.1202 2.69425 15.7024 3.82979H9.45139C10.0391 2.68749 11.2354 1.91489 12.577 1.91489ZM5.28178 5.74468H16.0876V12.4468C16.0876 13.3268 15.3719 14.0426 14.4919 14.0426C13.6119 14.0426 12.8962 13.3268 12.8962 12.4468V8.61702C12.8962 8.08813 12.4676 7.65957 11.9387 7.65957C11.4098 7.65957 10.9813 8.08813 10.9813 8.61702V12.4468C10.9813 14.3825 12.5562 15.9574 14.4919 15.9574C16.4276 15.9574 18.0025 14.3825 18.0025 12.4468V5.74468H44.5054V47.3617H34.7395C34.6137 47.3617 34.4892 47.3864 34.3731 47.4345C34.2569 47.4827 34.1513 47.5532 34.0624 47.6421C33.9735 47.731 33.903 47.8366 33.8549 47.9527C33.8068 48.0689 33.782 48.1934 33.782 48.3191V58.0851H5.28178V5.74468Z" fill="#E30613"/>
<path d="M37.8033 44.1062C38.3322 44.1062 38.7607 43.6776 38.7607 43.1487C38.7607 42.6198 38.3322 42.1913 37.8033 42.1913H11.9839C11.455 42.1913 11.0264 42.6198 11.0264 43.1487C11.0264 43.6776 11.455 44.1062 11.9839 44.1062H37.8033ZM11.9839 38.3615H37.8033C38.3322 38.3615 38.7607 37.933 38.7607 37.4041C38.7607 36.8752 38.3322 36.4466 37.8033 36.4466H11.9839C11.455 36.4466 11.0264 36.8752 11.0264 37.4041C11.0264 37.933 11.455 38.3615 11.9839 38.3615ZM11.9839 32.6168H37.8033C38.3322 32.6168 38.7607 32.1883 38.7607 31.6594C38.7607 31.1305 38.3322 30.7019 37.8033 30.7019H11.9839C11.455 30.7019 11.0264 31.1305 11.0264 31.6594C11.0264 32.1883 11.455 32.6168 11.9839 32.6168ZM11.9839 26.8721H37.8033C38.3322 26.8721 38.7607 26.4436 38.7607 25.9147C38.7607 25.3858 38.3322 24.9572 37.8033 24.9572H11.9839C11.455 24.9572 11.0264 25.3858 11.0264 25.9147C11.0264 26.4436 11.455 26.8721 11.9839 26.8721ZM11.9839 21.1275H37.8033C38.3322 21.1275 38.7607 20.6989 38.7607 20.17C38.7607 19.6411 38.3322 19.2126 37.8033 19.2126H11.9839C11.455 19.2126 11.0264 19.6411 11.0264 20.17C11.0264 20.6989 11.455 21.1275 11.9839 21.1275ZM50.5692 3.82959H49.2926C48.7637 3.82959 48.3352 4.25814 48.3352 4.78704C48.3352 5.31593 48.7637 5.74448 49.2926 5.74448H49.6118V58.0849H39.3898C38.8609 58.0849 38.4324 58.5135 38.4324 59.0424C38.4324 59.5713 38.8609 59.9998 39.3898 59.9998H50.5692C51.0981 59.9998 51.5267 59.5713 51.5267 59.0424V4.78704C51.5267 4.25814 51.0981 3.82959 50.5692 3.82959ZM55.6756 3.82959H54.399C53.8701 3.82959 53.4416 4.25814 53.4416 4.78704C53.4416 5.31593 53.8701 5.74448 54.399 5.74448H54.7182V58.0849H54.399C53.8701 58.0849 53.4416 58.5135 53.4416 59.0424C53.4416 59.5713 53.8701 59.9998 54.399 59.9998H55.6756C56.2045 59.9998 56.6331 59.5713 56.6331 59.0424V4.78704C56.6331 4.25814 56.2045 3.82959 55.6756 3.82959Z" fill="#E30613"/>
</svg>
