<svg width="60" height="60" viewBox="0 0 60 60" fill="none" xmlns="http://www.w3.org/2000/svg">
<path d="M20.8308 14.0884C20.6585 14.6189 20.8282 15.1875 21.2629 15.5371L25.1342 18.6486L23.8312 23.4415C23.6849 23.9796 23.8819 24.5393 24.3335 24.8677C24.7851 25.1953 25.378 25.2097 25.8447 24.9043L30.0003 22.1841L34.156 24.9045C34.3726 25.0472 34.6262 25.1235 34.8856 25.1239C35.1667 25.1235 35.4403 25.0338 35.667 24.8677C36.1188 24.5396 36.3159 23.9796 36.1693 23.4415L34.8663 18.6488L38.7373 15.5373C39.1725 15.1879 39.3421 14.6191 39.1696 14.0884C38.9973 13.5575 38.5257 13.1972 37.9685 13.1702L33.0076 12.9284L31.2446 8.28516C31.0467 7.76355 30.5581 7.42641 30.0002 7.42641C29.4423 7.42641 28.9537 7.76344 28.7559 8.28504L26.9928 12.9285L22.0323 13.1702C21.4748 13.1972 21.0032 13.5575 20.8308 14.0884ZM27.4398 14.7838C27.6984 14.7712 27.9478 14.6835 28.1573 14.5312C28.3668 14.379 28.5273 14.1689 28.6191 13.9268L30.0001 10.2899L31.381 13.9271C31.473 14.1692 31.6335 14.3791 31.843 14.5312C32.0525 14.6834 32.3018 14.7712 32.5604 14.7838L36.446 14.9733L33.4136 17.4104C33.2118 17.5727 33.0616 17.7902 32.9816 18.0365C32.9016 18.2828 32.8952 18.5471 32.9632 18.797L33.9837 22.551L30.7287 20.4202C30.512 20.2784 30.2587 20.2029 29.9998 20.2029C29.7408 20.2029 29.4875 20.2785 29.2708 20.4203L26.016 22.551L27.0366 18.7972C27.1047 18.5473 27.0983 18.283 27.0182 18.0366C26.9382 17.7903 26.788 17.5726 26.586 17.4104L23.5538 14.9734L27.4398 14.7838ZM29.0626 4.37789V0.9375C29.0626 0.68886 29.1613 0.450403 29.3372 0.274587C29.513 0.0987721 29.7514 0 30.0001 0C30.2487 0 30.4872 0.0987721 30.663 0.274587C30.8388 0.450403 30.9376 0.68886 30.9376 0.9375V4.37789C30.9376 4.62653 30.8388 4.86499 30.663 5.0408C30.4872 5.21662 30.2487 5.31539 30.0001 5.31539C29.7514 5.31539 29.513 5.21662 29.3372 5.0408C29.1613 4.86499 29.0626 4.62653 29.0626 4.37789ZM34.7718 9.93234C34.6055 9.74757 34.5193 9.50428 34.5323 9.25598C34.5453 9.00769 34.6564 8.77473 34.8412 8.60836L38.675 5.15625C38.7665 5.07386 38.8733 5.0103 38.9893 4.9692C39.1054 4.9281 39.2284 4.91025 39.3514 4.91669C39.4743 4.92313 39.5948 4.95372 39.7059 5.00671C39.817 5.05971 39.9166 5.13408 39.999 5.22557C40.0814 5.31706 40.145 5.42388 40.1861 5.53993C40.2272 5.65598 40.245 5.779 40.2386 5.90194C40.2322 6.02489 40.2016 6.14537 40.1486 6.2565C40.0956 6.36762 40.0212 6.46722 39.9297 6.54961L36.0958 10.0017C35.9239 10.157 35.7004 10.2428 35.4687 10.2425C35.3373 10.2427 35.2073 10.2152 35.0872 10.1617C34.9671 10.1083 34.8597 10.0301 34.7718 9.93234ZM20.001 5.22563C20.0834 5.13412 20.183 5.05974 20.2942 5.00673C20.4053 4.95372 20.5258 4.92312 20.6487 4.91668C20.7717 4.91024 20.8947 4.92808 21.0108 4.96918C21.1268 5.01029 21.2337 5.07386 21.3251 5.15625L25.1591 8.60836C25.3438 8.77475 25.4549 9.00772 25.4679 9.25603C25.4809 9.50433 25.3948 9.74763 25.2284 9.9324C25.062 10.1172 24.829 10.2283 24.5807 10.2413C24.3324 10.2543 24.0891 10.1681 23.9043 10.0017L20.0704 6.54961C19.8857 6.38324 19.7745 6.15028 19.7615 5.90199C19.7485 5.65369 19.8347 5.4104 20.001 5.22563ZM42.0275 15.5371L45.8988 18.6486L44.5958 23.4415C44.4495 23.9796 44.6465 24.5393 45.098 24.8677C45.5493 25.1953 46.1423 25.2096 46.6093 24.9043L50.7649 22.1841L54.9206 24.9045C55.1372 25.0472 55.3908 25.1235 55.6502 25.1239C55.9312 25.1235 56.2049 25.0338 56.4316 24.8677C56.8831 24.5399 57.0802 23.9801 56.9339 23.4415L55.6308 18.6488L59.5019 15.5373C59.9369 15.188 60.1066 14.6193 59.9341 14.0884C59.7617 13.5575 59.2901 13.1972 58.733 13.1702L53.7721 12.9284L52.0093 8.28516C51.8114 7.76355 51.3228 7.42641 50.7649 7.42641C50.2068 7.42641 49.7183 7.76344 49.5203 8.28504L47.7575 12.9284L42.7969 13.1701C42.2394 13.1971 41.7678 13.5575 41.5954 14.0884C41.4229 14.6191 41.5926 15.1879 42.0275 15.5371ZM48.2042 14.7838C48.4629 14.7712 48.7124 14.6835 48.9219 14.5312C49.1315 14.379 49.292 14.1689 49.3839 13.9267L50.7648 10.2898L52.1455 13.9266C52.2373 14.1687 52.3979 14.3788 52.6074 14.5311C52.8169 14.6833 53.0664 14.7711 53.3251 14.7837L57.2107 14.9732L54.1787 17.4101C53.9767 17.5723 53.8264 17.7899 53.7463 18.0362C53.6663 18.2826 53.6598 18.5469 53.7278 18.7969L54.7484 22.5509L51.4934 20.42C51.2768 20.2782 51.0234 20.2026 50.7644 20.2026C50.5055 20.2026 50.2521 20.2782 50.0355 20.4202L46.7807 22.5509L47.8013 18.7971C47.8693 18.5472 47.8629 18.2828 47.7828 18.0365C47.7028 17.7902 47.5526 17.5726 47.3507 17.4103L44.3185 14.9732L48.2042 14.7838ZM0.498114 15.5371L4.3694 18.6486L3.06639 23.4415C2.92014 23.9796 3.11714 24.5393 3.56866 24.8677C4.0203 25.1953 4.61315 25.2097 5.07991 24.9043L9.2355 22.1841L13.3912 24.9045C13.6078 25.0472 13.8614 25.1235 14.1208 25.1239C14.4019 25.1235 14.6755 25.0338 14.9022 24.8677C15.3537 24.5399 15.5508 23.9801 15.4045 23.4415L14.1015 18.6488L17.9725 15.5373C18.4073 15.1882 18.5771 14.6196 18.4047 14.0878C18.232 13.5573 17.7604 13.1971 17.2037 13.1701L12.2428 12.9282L10.4799 8.28516C10.282 7.76355 9.79343 7.42641 9.2355 7.42641C8.67745 7.42641 8.1889 7.76344 7.99097 8.28504L6.22811 12.9284L1.26757 13.1701C0.710106 13.1971 0.238543 13.5575 0.0662776 14.0878C-0.106574 14.6188 0.0629964 15.1877 0.498114 15.5371ZM6.67483 14.7838C6.93355 14.7712 7.18299 14.6835 7.39254 14.5312C7.6021 14.379 7.76267 14.1689 7.85456 13.9267L9.23538 10.2898L10.6161 13.9266C10.708 14.1687 10.8685 14.3788 11.078 14.5311C11.2876 14.6833 11.537 14.7711 11.7957 14.7837L15.6813 14.9732L12.6493 17.4101C12.4473 17.5723 12.2971 17.7899 12.217 18.0362C12.1369 18.2826 12.1305 18.5469 12.1985 18.7969L13.2191 22.5509L9.96405 20.42C9.7474 20.2782 9.49405 20.2026 9.23507 20.2026C8.97609 20.2026 8.72275 20.2782 8.50612 20.4202L5.25136 22.5509L6.27194 18.7971C6.33991 18.5472 6.33349 18.2828 6.25345 18.0365C6.17341 17.7902 6.02325 17.5726 5.82136 17.4103L2.78913 14.9732L6.67483 14.7838ZM59.8525 49.7968C59.1929 47.6666 57.8418 45.7539 56.048 44.4107C55.201 43.7755 54.2639 43.2705 53.2676 42.9122C54.6353 41.8387 55.5166 40.1723 55.5166 38.3029C55.5166 35.0725 52.8884 32.4444 49.6581 32.4444C46.4278 32.4444 43.7996 35.0725 43.7996 38.3029C43.7996 40.1701 44.6787 41.8349 46.0437 42.9084C44.2143 43.5614 42.5936 44.7087 41.3525 46.2546C40.7678 45.4365 40.0968 44.6836 39.351 44.0091C37.851 42.6513 36.073 41.637 34.1409 41.0367C36.1723 39.69 37.5153 37.3841 37.5153 34.7695C37.5153 30.6258 34.1439 27.2545 30.0002 27.2545C25.8564 27.2545 22.4851 30.6258 22.4851 34.7695C22.4851 37.3841 23.8279 39.69 25.8594 41.0367C23.9272 41.6369 22.1491 42.6513 20.6491 44.0091C19.9033 44.6836 19.2324 45.4364 18.6478 46.2545C17.4067 44.7084 15.786 43.5612 13.9565 42.9081C15.3214 41.8345 16.2007 40.1698 16.2007 38.3025C16.2007 35.0721 13.5725 32.4441 10.3422 32.4441C7.11182 32.4441 4.48366 35.0721 4.48366 38.3025C4.48366 40.1719 5.36491 41.8384 6.73249 42.9118C5.73623 43.2701 4.79906 43.7752 3.95198 44.4103C2.15819 45.7534 0.807137 47.6662 0.147489 49.7964C-0.157316 50.7803 0.011551 51.7788 0.622918 52.6083C1.23417 53.4375 2.13815 53.8941 3.16823 53.8941H16.1283V55.586C16.1283 58.02 18.1085 60.0001 20.5424 60.0001H39.4577C41.8915 60.0001 43.8718 58.02 43.8719 55.586V53.8945H56.8319C57.8621 53.8945 58.7661 53.4379 59.3772 52.6087C59.9885 51.7793 60.1573 50.7806 59.8525 49.7968ZM49.6581 34.3194C51.8546 34.3194 53.6416 36.1064 53.6416 38.3029C53.6416 40.4994 51.8546 42.2864 49.6581 42.2864C47.4616 42.2864 45.6746 40.4994 45.6746 38.3029C45.6746 36.1064 47.4616 34.3194 49.6581 34.3194ZM24.3601 34.7695C24.3601 31.6596 26.8903 29.1295 30.0002 29.1295C33.1101 29.1295 35.6403 31.6596 35.6403 34.7695C35.6403 37.8785 33.1117 40.4079 30.0032 40.4095H29.997C26.8885 40.4078 24.3601 37.8784 24.3601 34.7695ZM10.3422 34.3189C12.5387 34.3189 14.3257 36.1059 14.3257 38.3024C14.3257 40.4989 12.5387 42.2859 10.3422 42.2859C8.14565 42.2859 6.35866 40.4989 6.35866 38.3024C6.35866 36.1059 8.14565 34.3189 10.3422 34.3189ZM16.2501 52.0189H3.16835C2.73686 52.0189 2.38835 51.8429 2.13229 51.4956C1.87612 51.1482 1.81108 50.7632 1.9387 50.351C3.08526 46.6485 6.46249 44.1609 10.3422 44.1609C13.2769 44.1609 15.9503 45.5789 17.5946 47.9793C16.9412 49.2486 16.4877 50.6112 16.2501 52.0189ZM41.9969 55.5859C41.9968 56.9859 40.8577 58.125 39.4577 58.125H20.5424C19.1424 58.125 18.0033 56.9859 18.0033 55.5859V53.0074C18.6821 46.8916 23.8294 42.2861 29.997 42.2845L30.0002 42.2846L30.0032 42.2845C36.1707 42.2862 41.3179 46.8916 41.9969 53.0074V55.5859ZM57.868 51.4962C57.6119 51.8434 57.2635 52.0194 56.8319 52.0194H43.7503C43.5125 50.6116 43.059 49.249 42.4058 47.9795C44.0501 45.5793 46.7234 44.1614 49.658 44.1614C53.5378 44.1614 56.915 46.6491 58.0616 50.3516C58.1892 50.7635 58.124 51.1486 57.868 51.4962Z" fill="#E30613"/>
</svg>
