<svg width="43" height="108" viewBox="0 0 43 108" fill="none" xmlns="http://www.w3.org/2000/svg">
<path d="M42.6072 106.243C42.6392 106.794 42.2181 107.267 41.6668 107.299L32.6819 107.82C32.1305 107.852 31.6576 107.431 31.6256 106.88C31.5936 106.328 32.0147 105.855 32.566 105.823L40.5526 105.36L40.0894 97.3735C40.0574 96.8221 40.4784 96.3493 41.0298 96.3173C41.5811 96.2853 42.054 96.7063 42.086 97.2577L42.6072 106.243ZM36.3998 0.699983L37.1138 1.40013C36.6501 1.87298 36.185 2.34161 35.7189 2.80627L35.0129 2.09808L34.3069 1.38989C34.768 0.930236 35.2278 0.46697 35.6858 -0.000166819L36.3998 0.699983ZM32.2041 4.84419L32.8969 5.56539C31.9422 6.48239 30.987 7.38517 30.0354 8.27569L29.3521 7.54553L28.6689 6.81537C29.6157 5.92935 30.5643 5.03269 31.5114 4.123L32.2041 4.84419ZM26.4731 10.218L27.1513 10.9529C26.1806 11.8486 25.2131 12.7377 24.262 13.6144L23.5842 12.8792L22.9065 12.1439C23.862 11.2631 24.8232 10.3797 25.795 9.48302L26.4731 10.218ZM20.7042 15.5488L21.387 16.2794C20.4217 17.1816 19.4742 18.077 18.5488 18.9688L17.8549 18.2488L17.1609 17.5287C18.0957 16.6279 19.0509 15.7252 20.0214 14.8182L20.7042 15.5488ZM15.0624 21.0035L15.7742 21.7058C14.8458 22.6469 13.9481 23.5862 13.0864 24.5272L12.3489 23.8519L11.6114 23.1766C12.4925 22.2144 13.4075 21.2569 14.3506 20.3012L15.0624 21.0035ZM9.76599 26.8158L10.5375 27.452C9.7029 28.4642 8.91632 29.4811 8.1838 30.5069L7.37 29.9258L6.5562 29.3446C7.31878 28.2767 8.13408 27.223 8.99447 26.1796L9.76599 26.8158ZM5.2322 33.2104L6.09493 33.716C5.44122 34.8314 4.85634 35.9605 4.34728 37.1082L3.43316 36.7028L2.51904 36.2973C3.06119 35.075 3.68118 33.879 4.36947 32.7047L5.2322 33.2104ZM2.07926 40.3841L3.03909 40.6647C2.68701 41.8691 2.41931 43.099 2.24374 44.3598L1.2533 44.2219L0.262859 44.0839C0.452296 42.7236 0.740929 41.3983 1.11943 40.1036L2.07926 40.3841ZM0.999991 48.1259L1.99996 48.1181C2.0095 49.3409 2.10385 50.5969 2.29017 51.8903L1.30038 52.0329L0.310599 52.1755C0.11176 50.7951 0.0102814 49.449 2.12862e-05 48.1337L0.999991 48.1259ZM2.09403 55.8791L3.06025 55.6214C3.37582 56.8045 3.7655 58.0193 4.23417 59.2683L3.29791 59.6196L2.36166 59.9709C1.87124 58.664 1.4612 57.3867 1.12781 56.1369L2.09403 55.8791ZM4.82834 63.2326L5.73321 62.8069C6.2578 63.9221 6.8424 65.0634 7.48994 66.2324L6.61517 66.7169L5.74041 67.2015C5.07278 65.9962 4.4679 64.8156 3.92346 63.6583L4.82834 63.2326ZM8.60711 70.0857L9.45414 69.5542C10.1174 70.611 10.8296 71.6894 11.5926 72.7904L10.7707 73.36L9.94875 73.9296C9.16937 72.805 8.44034 71.7012 7.76009 70.6173L8.60711 70.0857ZM13.0865 76.5637L13.8858 75.9628C14.6411 76.9674 15.4368 77.9899 16.2741 79.0311L15.4948 79.6578L14.7155 80.2845C13.8653 79.2272 13.0562 78.1875 12.2872 77.1647L13.0865 76.5637ZM17.9804 82.66L18.742 82.0118C19.5706 82.9855 20.4342 83.9748 21.3335 84.9802L20.5882 85.6469L19.8428 86.3136C18.9331 85.2964 18.0587 84.2948 17.2189 83.3081L17.9804 82.66ZM23.2175 88.5233L23.9486 87.841C24.8173 88.7719 25.7155 89.7161 26.6438 90.674L25.9257 91.3699L25.2075 92.0658C24.2708 91.0992 23.364 90.146 22.4864 89.2056L23.2175 88.5233ZM28.691 94.1751L29.3974 93.4672C30.2968 94.3647 31.2217 95.2738 32.1725 96.1948L31.4768 96.9131L30.781 97.6314C29.8233 96.7037 28.8913 95.7876 27.9847 94.8829L28.691 94.1751ZM34.3331 99.6419L35.019 98.9143C35.9458 99.788 36.8952 100.672 37.8675 101.567L37.1904 102.303L36.5133 103.039C35.5352 102.139 34.5799 101.249 33.6471 100.37L34.3331 99.6419ZM40.1031 104.953L40.772 104.209C41.2671 104.655 41.7677 105.103 42.2738 105.554L41.6088 106.3L40.9439 107.047C40.4351 106.594 39.9319 106.144 39.4341 105.696L40.1031 104.953Z" fill="#E30613"/>
</svg>
