<svg width="114" height="30" viewBox="0 0 114 30" fill="none" xmlns="http://www.w3.org/2000/svg">
<path d="M111.64 4.35336C112.191 4.31994 112.665 4.73974 112.698 5.29101L113.243 14.2745C113.276 14.8258 112.857 15.2998 112.305 15.3332C111.754 15.3666 111.28 14.9468 111.247 14.3956L110.763 6.41021L102.777 6.89434C102.226 6.92776 101.752 6.50796 101.719 5.95669C101.685 5.40542 102.105 4.93143 102.656 4.898L111.64 4.35336ZM0.700195 0.713867L1.40039 -8.39233e-05C1.84549 0.436438 2.30862 0.879883 2.78923 1.3291L2.10639 2.05967L1.42355 2.79023C0.931527 2.33035 0.456814 1.87583 -2.98023e-07 1.42782L0.700195 0.713867ZM5.03696 4.68089L5.6879 3.92176C6.63757 4.7361 7.63683 5.56108 8.68264 6.39062L8.06119 7.17408L7.43975 7.95754C6.37414 7.11229 5.35521 6.27109 4.38602 5.44002L5.03696 4.68089ZM11.1846 9.56047L11.7774 8.75513C12.8024 9.50965 13.8631 10.2631 14.9573 11.0108L14.393 11.8364L13.8288 12.662C12.7152 11.9009 11.6354 11.134 10.5918 10.3658L11.1846 9.56047ZM17.6741 13.9962L18.2093 13.1515C19.2895 13.836 20.3968 14.5116 21.5294 15.1749L21.024 16.0378L20.5187 16.9007C19.3655 16.2254 18.2383 15.5376 17.1388 14.8409L17.6741 13.9962ZM24.446 17.9605L24.9201 17.0801C26.0517 17.6893 27.2048 18.2838 28.3777 18.8604L27.9366 19.7578L27.4955 20.6553C26.2998 20.0676 25.1247 19.4617 23.9719 18.841L24.446 17.9605ZM31.4931 21.422L31.8992 20.5082C33.0767 21.0315 34.2712 21.5347 35.4815 22.015L35.1127 22.9445L34.7438 23.874C33.5078 23.3835 32.2883 22.8698 31.087 22.3358L31.4931 21.422ZM38.7922 24.3154L39.1212 23.371C40.3391 23.7952 41.5706 24.1944 42.8143 24.5657L42.5282 25.5239L42.2421 26.4821C40.9688 26.1019 39.7087 25.6935 38.4633 25.2598L38.7922 24.3154ZM46.3159 26.5582L46.556 25.5875C47.8075 25.8971 49.0694 26.1769 50.3404 26.4241L50.1495 27.4057L49.9585 28.3873C48.6535 28.1335 47.3588 27.8464 46.0757 27.529L46.3159 26.5582ZM54.0216 28.0533L54.1599 27.0629C55.4347 27.241 56.717 27.3846 58.0055 27.4911L57.9231 28.4877L57.8407 29.4843C56.5137 29.3746 55.1941 29.2268 53.8832 29.0437L54.0216 28.0533ZM61.8429 28.6963L61.8662 27.6966C63.1495 27.7265 64.4377 27.7179 65.7294 27.6682L65.7678 28.6674L65.8063 29.6667C64.4724 29.718 63.1431 29.7269 61.8195 29.696L61.8429 28.6963ZM69.6829 28.3915L69.5805 27.3967C70.853 27.2657 72.1279 27.0928 73.4039 26.8757L73.5716 27.8615L73.7394 28.8474C72.4192 29.072 71.1008 29.2508 69.7853 29.3862L69.6829 28.3915ZM77.4166 27.0741L77.1832 26.1017C78.4229 25.804 79.6628 25.4625 80.9019 25.0749L81.2004 26.0293L81.4989 26.9837C80.2165 27.3849 78.9331 27.7384 77.6501 28.0464L77.4166 27.0741ZM84.9066 24.7316L84.5447 23.7994C85.731 23.3388 86.9158 22.8337 88.0981 22.2823L88.5208 23.1886L88.9435 24.0948C87.7212 24.6649 86.4959 25.1873 85.2685 25.6638L84.9066 24.7316ZM92.0242 21.4147L91.5442 20.5374C92.6549 19.9298 93.7627 19.279 94.8668 18.5834L95.3998 19.4294L95.9329 20.2755C94.7943 20.9929 93.6511 21.6645 92.5041 22.292L92.0242 21.4147ZM98.6508 17.2441L98.069 16.4307C99.1 15.6932 100.127 14.9145 101.15 14.0933L101.776 14.873L102.402 15.6526C101.351 16.4968 100.294 17.298 99.2327 18.0574L98.6508 17.2441ZM104.777 12.3287L104.111 11.583C105.06 10.735 106.004 9.8483 106.944 8.92186L107.646 9.6339L108.348 10.3459C107.386 11.295 106.417 12.2042 105.443 13.0744L104.777 12.3287ZM110.361 6.83032L109.627 6.15096C110.07 5.6728 110.512 5.18536 110.952 4.68851L111.7 5.35153L112.449 6.01455C111.999 6.5223 111.548 7.02064 111.095 7.50968L110.361 6.83032Z" fill="#E30613"/>
</svg>
