<svg width="60" height="60" viewBox="0 0 60 60" fill="none" xmlns="http://www.w3.org/2000/svg">
<path d="M52.5 37.5984V11.25C52.5 8.66531 50.3972 6.5625 47.8125 6.5625H45.9375V4.6875C45.9375 3.13687 44.6756 1.875 43.125 1.875C41.5744 1.875 40.3125 3.13687 40.3125 4.6875V6.5625H35.625V4.6875C35.625 3.13687 34.3631 1.875 32.8125 1.875C31.2619 1.875 30 3.13687 30 4.6875V6.5625H24.375V4.6875C24.375 3.13687 23.1131 1.875 21.5625 1.875C20.0119 1.875 18.75 3.13687 18.75 4.6875V6.5625H14.0625V4.6875C14.0625 3.13687 12.8006 1.875 11.25 1.875C9.69938 1.875 8.4375 3.13687 8.4375 4.6875V6.5625H6.5625C3.97781 6.5625 1.875 8.66531 1.875 11.25V48.75C1.875 51.3347 3.97781 53.4375 6.5625 53.4375H38.0841C40.0341 56.7938 43.6594 59.0625 47.8125 59.0625C54.0159 59.0625 59.0625 54.0159 59.0625 47.8125C59.0625 43.2834 56.3662 39.3806 52.5 37.5984ZM42.1875 4.6875C42.1875 4.43886 42.2863 4.2004 42.4621 4.02459C42.6379 3.84877 42.8764 3.75 43.125 3.75C43.3736 3.75 43.6121 3.84877 43.7879 4.02459C43.9637 4.2004 44.0625 4.43886 44.0625 4.6875V10.3125C44.0625 10.5611 43.9637 10.7996 43.7879 10.9754C43.6121 11.1512 43.3736 11.25 43.125 11.25C42.8764 11.25 42.6379 11.1512 42.4621 10.9754C42.2863 10.7996 42.1875 10.5611 42.1875 10.3125V4.6875ZM31.875 4.6875C31.875 4.43886 31.9738 4.2004 32.1496 4.02459C32.3254 3.84877 32.5639 3.75 32.8125 3.75C33.0611 3.75 33.2996 3.84877 33.4754 4.02459C33.6512 4.2004 33.75 4.43886 33.75 4.6875V10.3125C33.75 10.5611 33.6512 10.7996 33.4754 10.9754C33.2996 11.1512 33.0611 11.25 32.8125 11.25C32.5639 11.25 32.3254 11.1512 32.1496 10.9754C31.9738 10.7996 31.875 10.5611 31.875 10.3125V4.6875ZM20.625 4.6875C20.625 4.43886 20.7238 4.2004 20.8996 4.02459C21.0754 3.84877 21.3139 3.75 21.5625 3.75C21.8111 3.75 22.0496 3.84877 22.2254 4.02459C22.4012 4.2004 22.5 4.43886 22.5 4.6875V10.3125C22.5 10.5611 22.4012 10.7996 22.2254 10.9754C22.0496 11.1512 21.8111 11.25 21.5625 11.25C21.3139 11.25 21.0754 11.1512 20.8996 10.9754C20.7238 10.7996 20.625 10.5611 20.625 10.3125V4.6875ZM10.3125 4.6875C10.3125 4.43886 10.4113 4.2004 10.5871 4.02459C10.7629 3.84877 11.0014 3.75 11.25 3.75C11.4986 3.75 11.7371 3.84877 11.9129 4.02459C12.0887 4.2004 12.1875 4.43886 12.1875 4.6875V10.3125C12.1875 10.5611 12.0887 10.7996 11.9129 10.9754C11.7371 11.1512 11.4986 11.25 11.25 11.25C11.0014 11.25 10.7629 11.1512 10.5871 10.9754C10.4113 10.7996 10.3125 10.5611 10.3125 10.3125V4.6875ZM6.5625 8.4375H8.4375V10.3125C8.4375 11.8631 9.69938 13.125 11.25 13.125C12.8006 13.125 14.0625 11.8631 14.0625 10.3125V8.4375H18.75V10.3125C18.75 11.8631 20.0119 13.125 21.5625 13.125C23.1131 13.125 24.375 11.8631 24.375 10.3125V8.4375H30V10.3125C30 11.8631 31.2619 13.125 32.8125 13.125C34.3631 13.125 35.625 11.8631 35.625 10.3125V8.4375H40.3125V10.3125C40.3125 11.8631 41.5744 13.125 43.125 13.125C44.6756 13.125 45.9375 11.8631 45.9375 10.3125V8.4375H47.8125C49.3631 8.4375 50.625 9.69938 50.625 11.25V15.9375H3.75V11.25C3.75 9.69938 5.01187 8.4375 6.5625 8.4375ZM6.5625 51.5625C5.01187 51.5625 3.75 50.3006 3.75 48.75V17.8125H50.625V36.9328C49.707 36.6906 48.7619 36.5662 47.8125 36.5625C47.1722 36.5625 46.5488 36.6281 45.9375 36.7313V31.875C45.9375 31.6264 45.8387 31.3879 45.6629 31.2121C45.4871 31.0363 45.2486 30.9375 45 30.9375H39.375C39.1264 30.9375 38.8879 31.0363 38.7121 31.2121C38.5363 31.3879 38.4375 31.6264 38.4375 31.875V37.5C38.4375 37.7486 38.5363 37.9871 38.7121 38.1629C38.8879 38.3387 39.1264 38.4375 39.375 38.4375H41.6063C38.5716 40.4541 36.5625 43.9012 36.5625 47.8125C36.5625 49.1287 36.8016 50.3878 37.2188 51.5625H6.5625ZM44.0625 36.5625H40.3125V32.8125H44.0625V36.5625ZM47.8125 57.1875C42.6431 57.1875 38.4375 52.9819 38.4375 47.8125C38.4375 42.6431 42.6431 38.4375 47.8125 38.4375C52.9819 38.4375 57.1875 42.6431 57.1875 47.8125C57.1875 52.9819 52.9819 57.1875 47.8125 57.1875Z" fill="#E30613"/>
<path d="M48.75 46.1972V40.3125H46.875V46.1972C46.3172 46.5225 45.9375 47.1206 45.9375 47.8125C45.9375 47.9072 45.9516 47.9981 45.9656 48.09L42.5391 50.8303L43.7109 52.2947L47.1347 49.5563C47.3456 49.6388 47.5725 49.6875 47.8125 49.6875C48.3098 49.6875 48.7867 49.49 49.1383 49.1383C49.49 48.7867 49.6875 48.3098 49.6875 47.8125C49.6875 47.1206 49.3078 46.5225 48.75 46.1972ZM14.0625 20.625H8.4375C8.18886 20.625 7.9504 20.7238 7.77459 20.8996C7.59877 21.0754 7.5 21.3139 7.5 21.5625V27.1875C7.5 27.4361 7.59877 27.6746 7.77459 27.8504C7.9504 28.0262 8.18886 28.125 8.4375 28.125H14.0625C14.3111 28.125 14.5496 28.0262 14.7254 27.8504C14.9012 27.6746 15 27.4361 15 27.1875V21.5625C15 21.3139 14.9012 21.0754 14.7254 20.8996C14.5496 20.7238 14.3111 20.625 14.0625 20.625ZM13.125 26.25H9.375V22.5H13.125V26.25ZM24.375 20.625H18.75C18.5014 20.625 18.2629 20.7238 18.0871 20.8996C17.9113 21.0754 17.8125 21.3139 17.8125 21.5625V27.1875C17.8125 27.4361 17.9113 27.6746 18.0871 27.8504C18.2629 28.0262 18.5014 28.125 18.75 28.125H24.375C24.6236 28.125 24.8621 28.0262 25.0379 27.8504C25.2137 27.6746 25.3125 27.4361 25.3125 27.1875V21.5625C25.3125 21.3139 25.2137 21.0754 25.0379 20.8996C24.8621 20.7238 24.6236 20.625 24.375 20.625ZM23.4375 26.25H19.6875V22.5H23.4375V26.25ZM34.6875 20.625H29.0625C28.8139 20.625 28.5754 20.7238 28.3996 20.8996C28.2238 21.0754 28.125 21.3139 28.125 21.5625V27.1875C28.125 27.4361 28.2238 27.6746 28.3996 27.8504C28.5754 28.0262 28.8139 28.125 29.0625 28.125H34.6875C34.9361 28.125 35.1746 28.0262 35.3504 27.8504C35.5262 27.6746 35.625 27.4361 35.625 27.1875V21.5625C35.625 21.3139 35.5262 21.0754 35.3504 20.8996C35.1746 20.7238 34.9361 20.625 34.6875 20.625ZM33.75 26.25H30V22.5H33.75V26.25ZM39.375 28.125H45C45.2486 28.125 45.4871 28.0262 45.6629 27.8504C45.8387 27.6746 45.9375 27.4361 45.9375 27.1875V21.5625C45.9375 21.3139 45.8387 21.0754 45.6629 20.8996C45.4871 20.7238 45.2486 20.625 45 20.625H39.375C39.1264 20.625 38.8879 20.7238 38.7121 20.8996C38.5363 21.0754 38.4375 21.3139 38.4375 21.5625V27.1875C38.4375 27.4361 38.5363 27.6746 38.7121 27.8504C38.8879 28.0262 39.1264 28.125 39.375 28.125ZM40.3125 22.5H44.0625V26.25H40.3125V22.5ZM14.0625 30.9375H8.4375C8.18886 30.9375 7.9504 31.0363 7.77459 31.2121C7.59877 31.3879 7.5 31.6264 7.5 31.875V37.5C7.5 37.7486 7.59877 37.9871 7.77459 38.1629C7.9504 38.3387 8.18886 38.4375 8.4375 38.4375H14.0625C14.3111 38.4375 14.5496 38.3387 14.7254 38.1629C14.9012 37.9871 15 37.7486 15 37.5V31.875C15 31.6264 14.9012 31.3879 14.7254 31.2121C14.5496 31.0363 14.3111 30.9375 14.0625 30.9375ZM13.125 36.5625H9.375V32.8125H13.125V36.5625ZM24.375 30.9375H18.75C18.5014 30.9375 18.2629 31.0363 18.0871 31.2121C17.9113 31.3879 17.8125 31.6264 17.8125 31.875V37.5C17.8125 37.7486 17.9113 37.9871 18.0871 38.1629C18.2629 38.3387 18.5014 38.4375 18.75 38.4375H24.375C24.6236 38.4375 24.8621 38.3387 25.0379 38.1629C25.2137 37.9871 25.3125 37.7486 25.3125 37.5V31.875C25.3125 31.6264 25.2137 31.3879 25.0379 31.2121C24.8621 31.0363 24.6236 30.9375 24.375 30.9375ZM23.4375 36.5625H19.6875V32.8125H23.4375V36.5625ZM34.6875 30.9375H29.0625C28.8139 30.9375 28.5754 31.0363 28.3996 31.2121C28.2238 31.3879 28.125 31.6264 28.125 31.875V37.5C28.125 37.7486 28.2238 37.9871 28.3996 38.1629C28.5754 38.3387 28.8139 38.4375 29.0625 38.4375H34.6875C34.9361 38.4375 35.1746 38.3387 35.3504 38.1629C35.5262 37.9871 35.625 37.7486 35.625 37.5V31.875C35.625 31.6264 35.5262 31.3879 35.3504 31.2121C35.1746 31.0363 34.9361 30.9375 34.6875 30.9375ZM33.75 36.5625H30V32.8125H33.75V36.5625ZM14.0625 41.25H8.4375C8.18886 41.25 7.9504 41.3488 7.77459 41.5246C7.59877 41.7004 7.5 41.9389 7.5 42.1875V47.8125C7.5 48.0611 7.59877 48.2996 7.77459 48.4754C7.9504 48.6512 8.18886 48.75 8.4375 48.75H14.0625C14.3111 48.75 14.5496 48.6512 14.7254 48.4754C14.9012 48.2996 15 48.0611 15 47.8125V42.1875C15 41.9389 14.9012 41.7004 14.7254 41.5246C14.5496 41.3488 14.3111 41.25 14.0625 41.25ZM13.125 46.875H9.375V43.125H13.125V46.875ZM24.375 41.25H18.75C18.5014 41.25 18.2629 41.3488 18.0871 41.5246C17.9113 41.7004 17.8125 41.9389 17.8125 42.1875V47.8125C17.8125 48.0611 17.9113 48.2996 18.0871 48.4754C18.2629 48.6512 18.5014 48.75 18.75 48.75H24.375C24.6236 48.75 24.8621 48.6512 25.0379 48.4754C25.2137 48.2996 25.3125 48.0611 25.3125 47.8125V42.1875C25.3125 41.9389 25.2137 41.7004 25.0379 41.5246C24.8621 41.3488 24.6236 41.25 24.375 41.25ZM23.4375 46.875H19.6875V43.125H23.4375V46.875ZM34.6875 41.25H29.0625C28.8139 41.25 28.5754 41.3488 28.3996 41.5246C28.2238 41.7004 28.125 41.9389 28.125 42.1875V47.8125C28.125 48.0611 28.2238 48.2996 28.3996 48.4754C28.5754 48.6512 28.8139 48.75 29.0625 48.75H34.6875C34.9361 48.75 35.1746 48.6512 35.3504 48.4754C35.5262 48.2996 35.625 48.0611 35.625 47.8125V42.1875C35.625 41.9389 35.5262 41.7004 35.3504 41.5246C35.1746 41.3488 34.9361 41.25 34.6875 41.25ZM33.75 46.875H30V43.125H33.75V46.875Z" fill="#E30613"/>
</svg>
